<svg version="1.1" viewBox="0.0 0.0 960.0 540.0" fill="none" stroke="none" stroke-linecap="square" stroke-miterlimit="10" xmlns:xlink="http://www.w3.org/1999/xlink" xmlns="http://www.w3.org/2000/svg"><clipPath id="p.0"><path d="m0 0l960.0 0l0 540.0l-960.0 0l0 -540.0z" clip-rule="nonzero"/></clipPath><g clip-path="url(#p.0)"><path fill="#006d5b" d="m0 0l960.0 0l0 540.0l-960.0 0z" fill-rule="evenodd"/><path fill="#000000" fill-opacity="0.0" d="m94.519684 225.02362l770.9606 0l0 89.95276l-770.9606 0z" fill-rule="evenodd"/><path fill="#cccccc" d="m343.11063 276.12613q-0.75 6.46875 -4.765625 9.984375q-4.015625 3.515625 -10.671875 3.515625q-7.234375 0 -11.59375 -5.171875q-4.34375 -5.1875 -4.34375 -13.859375l0 -3.921875q0 -5.6875 2.03125 -10.0q2.03125 -4.3125153 5.75 -6.6093903q3.71875 -2.3125 8.625 -2.3125q6.5 0 10.40625 3.625q3.921875 3.625 4.5625 10.031265l-5.390625 0q-0.703125 -4.875 -3.046875 -7.0468903q-2.328125 -2.1875 -6.53125 -2.1875q-5.15625 0 -8.078125 3.8125q-2.921875 3.7968903 -2.921875 10.82814l0 3.9375q0 6.640625 2.765625 10.5625q2.78125 3.921875 7.765625 3.921875q4.46875 0 6.859375 -2.03125q2.40625 -2.03125 3.1875 -7.078125l5.390625 0zm5.15744 -2.484375q0 -4.453125 1.75 -8.0q1.7499695 -3.5625 4.8593445 -5.484375q3.125 -1.9375 7.140625 -1.9375q6.1875 0 10.0 4.28125q3.828125 4.28125 3.828125 11.390625l0 0.359375q0 4.421875 -1.703125 7.9375q-1.6875 3.515625 -4.84375 5.484375q-3.140625 1.953125 -7.234375 1.953125q-6.15625 0 -9.984375 -4.28125q-3.8124695 -4.28125 -3.8124695 -11.34375l0 -0.359375zm5.2030945 0.609375q0 5.046875 2.328125 8.09375q2.34375 3.046875 6.265625 3.046875q3.953125 0 6.265625 -3.09375q2.328125 -3.09375 2.328125 -8.65625q0 -4.984375 -2.375 -8.078125q-2.359375 -3.09375 -6.265625 -3.09375q-3.84375 0 -6.203125 3.0625q-2.34375 3.046875 -2.34375 8.71875zm33.74182 -15.46875l0.125 3.359375q3.34375 -3.921875 9.0 -3.921875q6.34375 0 8.640625 4.859375q1.515625 -2.171875 3.9375 -3.515625q2.421875 -1.34375 5.71875 -1.34375q9.96875 0 10.140625 10.546875l0 20.296875l-5.1875 0l0 -19.984375q0 -3.25 -1.484375 -4.859375q-1.484375 -1.609375 -4.984375 -1.609375q-2.875 0 -4.78125 1.71875q-1.90625 1.71875 -2.203125 4.640625l0 20.09375l-5.21875 0l0 -19.84375q0 -6.609375 -6.453125 -6.609375q-5.109375 0 -6.984375 4.34375l0 22.109375l-5.171875 0l0 -30.28125l4.90625 0zm50.996094 30.28125l-5.1875 0l0 -30.28125l5.1875 0l0 30.28125zm-5.59375 -38.32814q0 -1.25 0.765625 -2.109375q0.765625 -0.875 2.28125 -0.875q1.515625 0 2.296875 0.875q0.78125 0.859375 0.78125 2.125q0 1.25 -0.78125 2.09375q-0.78125 0.84375 -2.296875 0.84375q-1.515625 0 -2.28125 -0.84375q-0.765625 -0.84375 -0.765625 -2.109375zm18.771545 8.04689l0.171875 3.796875q3.46875 -4.359375 9.078125 -4.359375q9.59375 0 9.671875 10.828125l0 20.015625l-5.171875 0l0 -20.046875q-0.03125 -3.265625 -1.5 -4.828125q-1.46875 -1.578125 -4.578125 -1.578125q-2.515625 0 -4.421875 1.34375q-1.90625 1.34375 -2.96875 3.53125l0 21.578125l-5.171875 0l0 -30.28125l4.890625 0zm25.506226 14.890625q0 -7.09375 3.265625 -11.265625q3.28125 -4.1875 8.6875 -4.1875q5.546875 0 8.65625 3.921875l0.25 -3.359375l4.71875 0l0 29.546875q0 5.890625 -3.484375 9.265625q-3.484375 3.390625 -9.359375 3.390625q-3.265625 0 -6.40625 -1.40625q-3.140625 -1.390625 -4.78125 -3.828125l2.6875 -3.109375q3.328125 4.125 8.140625 4.125q3.78125 0 5.890625 -2.140625q2.109375 -2.125 2.109375 -5.984375l0 -2.59375q-3.109375 3.578125 -8.484375 3.578125q-5.3125 0 -8.609375 -4.28125q-3.28125 -4.28125 -3.28125 -11.671875zm5.203125 0.578125q0 5.125 2.09375 8.0625q2.109375 2.921875 5.890625 2.921875q4.890625 0 7.1875 -4.453125l0 -13.828125q-2.375 -4.34375 -7.140625 -4.34375q-3.765625 0 -5.90625 2.9375q-2.125 2.9375 -2.125 8.703125zm55.198944 -3.359375q-6.90625 -1.984375 -10.0625 -4.875q-3.140625 -2.90625 -3.140625 -7.15625q0 -4.8125153 3.84375 -7.9531403q3.84375 -3.15625 10.015625 -3.15625q4.1875 0 7.46875 1.625q3.296875 1.625 5.09375 4.484375q1.8125 2.8437653 1.8125 6.2343903l-5.390625 0q0 -3.703125 -2.359375 -5.8125153q-2.34375 -2.109375 -6.625 -2.109375q-3.984375 0 -6.21875 1.75q-2.21875 1.75 -2.21875 4.8593903q0 2.484375 2.109375 4.203125q2.125 1.71875 7.203125 3.15625q5.078125 1.421875 7.9375 3.140625q2.875 1.71875 4.265625 4.015625q1.390625 2.296875 1.390625 5.40625q0 4.953125 -3.875 7.9375q-3.859375 2.984375 -10.328125 2.984375q-4.1875 0 -7.828125 -1.609375q-3.640625 -1.609375 -5.625 -4.40625q-1.96875 -2.796875 -1.96875 -6.359375l5.40625 0q0 3.6875 2.71875 5.84375q2.734375 2.140625 7.296875 2.140625q4.265625 0 6.53125 -1.734375q2.265625 -1.75 2.265625 -4.734375q0 -3.0 -2.109375 -4.640625q-2.09375 -1.640625 -7.609375 -3.234375zm19.82312 2.75q0 -4.453125 1.75 -8.0q1.75 -3.5625 4.859375 -5.484375q3.125 -1.9375 7.140625 -1.9375q6.1875 0 10.0 4.28125q3.828125 4.28125 3.828125 11.390625l0 0.359375q0 4.421875 -1.703125 7.9375q-1.6875 3.515625 -4.84375 5.484375q-3.140625 1.953125 -7.234375 1.953125q-6.15625 0 -9.984375 -4.28125q-3.8125 -4.28125 -3.8125 -11.34375l0 -0.359375zm5.203125 0.609375q0 5.046875 2.328125 8.09375q2.34375 3.046875 6.265625 3.046875q3.953125 0 6.265625 -3.09375q2.328125 -3.09375 2.328125 -8.65625q0 -4.984375 -2.375 -8.078125q-2.359375 -3.09375 -6.265625 -3.09375q-3.84375 0 -6.203125 3.0625q-2.34375 3.046875 -2.34375 8.71875zm27.491821 -0.609375q0 -4.453125 1.75 -8.0q1.75 -3.5625 4.859375 -5.484375q3.125 -1.9375 7.140625 -1.9375q6.1875 0 10.0 4.28125q3.828125 4.28125 3.828125 11.390625l0 0.359375q0 4.421875 -1.703125 7.9375q-1.6875 3.515625 -4.84375 5.484375q-3.140625 1.953125 -7.234375 1.953125q-6.15625 0 -9.984375 -4.28125q-3.8125 -4.28125 -3.8125 -11.34375l0 -0.359375zm5.203125 0.609375q0 5.046875 2.328125 8.09375q2.34375 3.046875 6.265625 3.046875q3.953125 0 6.265625 -3.09375q2.328125 -3.09375 2.328125 -8.65625q0 -4.984375 -2.375 -8.078125q-2.359375 -3.09375 -6.265625 -3.09375q-3.84375 0 -6.203125 3.0625q-2.34375 3.046875 -2.34375 8.71875zm33.757446 -15.46875l0.171875 3.796875q3.46875 -4.359375 9.078125 -4.359375q9.59375 0 9.671875 10.828125l0 20.015625l-5.171875 0l0 -20.046875q-0.03125 -3.265625 -1.5 -4.828125q-1.46875 -1.578125 -4.578125 -1.578125q-2.515625 0 -4.421875 1.34375q-1.90625 1.34375 -2.96875 3.53125l0 21.578125l-5.171875 0l0 -30.28125l4.890625 0z" fill-rule="nonzero"/></g></svg>