<?xml version="1.0" encoding="UTF-8" standalone="no"?> <!-- Created with Vectornator for iOS (http://vectornator.io/) --><!DOCTYPE svg PUBLIC "-//W3C//DTD SVG 1.1//EN" "http://www.w3.org/Graphics/SVG/1.1/DTD/svg11.dtd">
<svg style="fill-rule:evenodd;clip-rule:evenodd;stroke-linecap:round;stroke-linejoin:round;" xmlns:vectornator="http://vectornator.io" xmlns:xlink="http://www.w3.org/1999/xlink" xmlns="http://www.w3.org/2000/svg" xml:space="preserve" version="1.1" viewBox="0 0 2807.44 1999.22">
<metadata>
<vectornator:setting key="DimensionsVisible" value="1"/>
<vectornator:setting key="New" value="1"/>
<vectornator:setting key="SnapToPoints" value="0"/>
<vectornator:setting key="GuidesVisible" value="1"/>
<vectornator:setting key="RulersVisible" value="1"/>
<vectornator:setting key="CMYKEnabledKey" value="0"/>
<vectornator:setting key="SnapToEdges" value="0"/>
<vectornator:setting key="DisplayWhiteBackground" value="0"/>
<vectornator:setting key="SnapToGuides" value="1"/>
<vectornator:setting key="GridSpacing" value="36"/>
<vectornator:setting key="SnapToGrid" value="0"/>
<vectornator:setting key="Units" value="Pixels"/>
<vectornator:setting key="DynamicGuides" value="0"/>
</metadata>
<defs/>
<g id="Layer 1" vectornator:layerName="Layer 1">
<g opacity="1">
<path d="M2350.86+1402.29L2350.81+1049.88L2594.72+1041.33L2594.73+993.781L2624.74+991.673L2625.23+943.163L2655.19+940.401L2655.2+891.097L2686.66+888.614L2687.16+839.276L2718.88+835.081L2719.12+784.916L2751.48+780.625L2752.01+729.797L2282.9+730.951L2159.4+731.22L1559.09+732.424L1559.45+782.857L1594.15+786.874L1594.21+837.468L1627.13+841.185L1627.24+890.602L1659.88+893.543L1659.46+942.887L1691.95+944.071L1692.24+993.832L1722.69+994.528L1723.67+1042.53L1754.7+1043L1754.58+1091.46L1784.02+1091.87L1784.26+1139.14L1813.75+1139.43L1813.83+1186.1L1842.09+1187.18L1842.58+1231.63L1870.57+1232.94L1870.7+1276.38L1898.32+1278.45L1898.08+1319.99L1925.24+1322.53L1925.16+1363.55L1951.6+1366.55L1951.84+1405.32L2133.47+1428.87L2350.86+1402.29Z" opacity="1" fill="#05003b"/>
<path d="M2132.54+1429.02L2132.69+1381.31L2105.99+1383.97L2106.02+1335.78L2078.78+1337.09L2078.64+1288.12L2050.35+1289.13L2050.17+1240.07L2022.1+1241.15L2022.04+1190.99L1992.15+1191.13L1992.24+1139.96L1962.64+1140.34L1962.54+1089.07L1931.92+1088.29L1931.64+1036L1899.96+1034.78L1899.81+981.631L1868.22+980.283L1867.98+927.118L1835.09+924.204L1834.65+870.332L1801.3+867.053L1801.04+811.767L1766.41+808.181L1766.36+752.63L1731.06+747.674" opacity="1" fill="#05003b"/>
<path d="M1558.84+782.479L1731.2+747.518" opacity="1" fill="#eb8d58"/>
<path stroke="#f7f2ef" stroke-width="1.5" d="M1593.21+837.414L1766.42+808.267" fill="#eb8d58" stroke-linecap="round" opacity="1" stroke-linejoin="round"/>
<path stroke="#f7f2ef" stroke-width="1.5" d="M1626.38+890.402L1800.92+866.949" fill="#eb8d58" stroke-linecap="round" opacity="1" stroke-linejoin="round"/>
<path stroke="#f7f2ef" stroke-width="1.5" d="M1658.7+942.377L1834.93+924.386" fill="#eb8d58" stroke-linecap="round" opacity="1" stroke-linejoin="round"/>
<path stroke="#f7f2ef" stroke-width="1.5" d="M1691.28+993.823L1868.29+980.27" fill="#eb8d58" stroke-linecap="round" opacity="1" stroke-linejoin="round"/>
<path stroke="#f7f2ef" stroke-width="1.5" d="M1722.34+1042.32L1900.12+1034.79" fill="#eb8d58" stroke-linecap="round" opacity="1" stroke-linejoin="round"/>
<path stroke="#f7f2ef" stroke-width="1.5" d="M1753.74+1091.19L1932.2+1088.44" fill="#eb8d58" stroke-linecap="round" opacity="1" stroke-linejoin="round"/>
<path stroke="#f7f2ef" stroke-width="1.5" d="M1783.24+1138.87L1962.85+1140.48" fill="#eb8d58" stroke-linecap="round" opacity="1" stroke-linejoin="round"/>
<path stroke="#f7f2ef" stroke-width="1.5" d="M1812.73+1185.79L1992.37+1191.1" fill="#eb8d58" stroke-linecap="round" opacity="1" stroke-linejoin="round"/>
<path stroke="#f7f2ef" stroke-width="1.5" d="M1841.57+1231.32L2022.56+1241.26" fill="#eb8d58" stroke-linecap="round" opacity="1" stroke-linejoin="round"/>
<path stroke="#f7f2ef" stroke-width="1.5" d="M1869.53+1276.21L2050.41+1289.12" fill="#eb8d58" stroke-linecap="round" opacity="1" stroke-linejoin="round"/>
<path stroke="#f7f2ef" stroke-width="1.5" d="M1897.15+1319.96L2079.04+1337.06" fill="#eb8d58" stroke-linecap="round" opacity="1" stroke-linejoin="round"/>
<path stroke="#f7f2ef" stroke-width="1.5" d="M1924.1+1363.58L2106+1383.74" fill="#eb8d58" stroke-linecap="round" opacity="1" stroke-linejoin="round"/>
<path d="M2566.78+745.856L2532.69+750.223L2533.11+806.596L2499.65+809.682L2499.77+865.425L2467.78+868.2L2467.69+923.078L2436.25+924.925L2436.69+979.38L2405.77+980.211L2405.88+1033.39L2593.58+1041.43" opacity="1" fill="#05003b"/>
<path stroke="#f7f2ef" stroke-width="1.5" d="M2405.8+1033.63L2158.82+1043.52L2349.72+1049.86" fill="#eb8d58" stroke-linecap="round" opacity="1" stroke-linejoin="round"/>
<path d="M2532.86+750.349L2718.22+785.151" opacity="1" fill="#eb8d58"/>
<path stroke="#f7f2ef" stroke-width="1.5" d="M2499.85+810.068L2687.48+838.62" fill="#eb8d58" stroke-linecap="round" opacity="1" stroke-linejoin="round"/>
<path stroke="#f7f2ef" stroke-width="1.5" d="M2717.89+834.942L2533.34+806.716" fill="#eb8d58" stroke-linecap="round" opacity="1" stroke-linejoin="round"/>
<path stroke="#f7f2ef" stroke-width="1.5" d="M2500.1+865.7L2686.14+888.529" fill="#eb8d58" stroke-linecap="round" opacity="1" stroke-linejoin="round"/>
<path stroke="#f7f2ef" stroke-width="1.5" d="M2467.89+868.717L2654.28+890.883" fill="#eb8d58" stroke-linecap="round" opacity="1" stroke-linejoin="round"/>
<path stroke="#f7f2ef" stroke-width="1.5" d="M2467.52+923.263L2654.16+939.979" fill="#eb8d58" stroke-linecap="round" opacity="1" stroke-linejoin="round"/>
<path stroke="#f7f2ef" stroke-width="1.5" d="M2436.46+925.177L2624.2+943.132" fill="#eb8d58" stroke-linecap="round" opacity="1" stroke-linejoin="round"/>
<path stroke="#f7f2ef" stroke-width="1.5" d="M2436.8+979.479L2623.61+991.751" fill="#eb8d58" stroke-linecap="round" opacity="1" stroke-linejoin="round"/>
<path stroke="#f7f2ef" stroke-width="1.5" d="M2593.5+994.073L2406.29+980.699" fill="#eb8d58" stroke-linecap="round" opacity="1" stroke-linejoin="round"/>
<path d="M2566.79+745.885L2750.13+780.686" opacity="1" fill="#eb8d58"/>
<path d="M2750.91+732.84L2679.58+732.984L1558.16+735.245" opacity="1" fill="#eb8d58"/>
<path d="M1593.16+787.097L1766.4+753.029" opacity="1" fill="#eb8d58"/>
<path stroke="#f7f2ef" stroke-width="1.5" d="M1626.14+841.35L1800.8+812.451" fill="#eb8d58" stroke-linecap="round" opacity="1" stroke-linejoin="round"/>
<path stroke="#f7f2ef" stroke-width="1.5" d="M1659.05+893.805L1834.51+871.008" fill="#eb8d58" stroke-linecap="round" opacity="1" stroke-linejoin="round"/>
<path stroke="#f7f2ef" stroke-width="1.5" d="M1690.68+944.146L1867.86+927.263" fill="#eb8d58" stroke-linecap="round" opacity="1" stroke-linejoin="round"/>
<path stroke="#f7f2ef" stroke-width="1.5" d="M1721.32+994.71L1899.68+982.058" fill="#eb8d58" stroke-linecap="round" opacity="1" stroke-linejoin="round"/>
<path stroke="#f7f2ef" stroke-width="1.5" d="M1753.74+1043.09L1931.18+1036.45" fill="#eb8d58" stroke-linecap="round" opacity="1" stroke-linejoin="round"/>
<path stroke="#f7f2ef" stroke-width="1.5" d="M1782.88+1091.84L1962.51+1089.52" fill="#eb8d58" stroke-linecap="round" opacity="1" stroke-linejoin="round"/>
<path d="M1961.12+62.1782L1960.54+414.591L1716.62+422.696L1716.52+470.248L1686.51+472.302L1685.93+520.812L1655.96+523.519L1655.86+572.823L1624.4+575.25L1623.81+624.586L1592.09+628.724L1591.75+678.889L1559.38+683.122L1558.76+733.948L2027.88+733.64L2151.38+733.594L2751.69+733.472L2751.42+683.039L2716.72+678.959L2716.75+628.366L2683.84+624.589L2683.82+575.172L2651.19+572.172L2651.7+522.829L2619.2+521.586L2619+471.825L2588.56+471.074L2587.67+423.072L2556.64+422.545L2556.84+374.084L2527.4+373.623L2527.25+326.346L2497.76+326.006L2497.76+279.334L2469.51+278.206L2469.1+233.756L2441.11+232.396L2441.06+188.958L2413.44+186.831L2413.76+145.296L2386.6+142.711L2386.76+101.69L2360.32+98.6355L2360.15+59.8712L2178.56+35.9886L1961.12+62.1782Z" opacity="1" fill="#05003b"/>
<path d="M2178.28+35.667L2178.04+83.3734L2204.75+80.7611L2204.63+128.955L2231.88+127.697L2231.92+176.661L2260.22+175.706L2260.3+224.767L2288.38+223.738L2288.35+273.891L2318.24+273.811L2318.06+324.983L2347.66+324.652L2347.66+375.919L2378.29+376.76L2378.47+429.045L2410.15+430.33L2410.2+483.475L2441.79+484.879L2441.93+538.045L2474.82+541.018L2475.16+594.891L2508.5+598.23L2508.66+653.516L2543.29+657.165L2543.24+712.716L2576.6+718.976" opacity="1" fill="#05003b"/>
<path d="M2750.81+683.241L2578.38+717.891" opacity="1" fill="#eb8d58"/>
<path stroke="#f7f2ef" stroke-width="1.5" d="M2716.54+628.244L2543.27+657.079" fill="#eb8d58" stroke-linecap="round" opacity="1" stroke-linejoin="round"/>
<path stroke="#f7f2ef" stroke-width="1.5" d="M2683.47+575.196L2508.88+598.335" fill="#eb8d58" stroke-linecap="round" opacity="1" stroke-linejoin="round"/>
<path stroke="#f7f2ef" stroke-width="1.5" d="M2651.24+523.163L2474.98+540.837" fill="#eb8d58" stroke-linecap="round" opacity="1" stroke-linejoin="round"/>
<path stroke="#f7f2ef" stroke-width="1.5" d="M2618.75+471.658L2441.72+484.892" fill="#eb8d58" stroke-linecap="round" opacity="1" stroke-linejoin="round"/>
<path stroke="#f7f2ef" stroke-width="1.5" d="M2527.42+373.261L2556.47+374.175L2378+376.603L2347.84+375.302L2527.42+373.261Z" fill="#eb8d58" stroke-linecap="round" opacity="1" stroke-linejoin="round"/>
<path stroke="#f7f2ef" stroke-width="1.5" d="M2527.05+326.447L2347.28+324.772" fill="#eb8d58" stroke-linecap="round" opacity="1" stroke-linejoin="round"/>
<path stroke="#f7f2ef" stroke-width="1.5" d="M2497.64+279.47L2318.02+273.842L2288.63+273.922" fill="#eb8d58" stroke-linecap="round" opacity="1" stroke-linejoin="round"/>
<path stroke="#f7f2ef" stroke-width="1.5" d="M2468.89+233.895L2287.92+223.622" fill="#eb8d58" stroke-linecap="round" opacity="1" stroke-linejoin="round"/>
<path stroke="#f7f2ef" stroke-width="1.5" d="M2441.01+188.955L2260.15+175.712" fill="#eb8d58" stroke-linecap="round" opacity="1" stroke-linejoin="round"/>
<path stroke="#f7f2ef" stroke-width="1.5" d="M2413.47+145.151L2231.61+127.724" fill="#eb8d58" stroke-linecap="round" opacity="1" stroke-linejoin="round"/>
<path stroke="#f7f2ef" stroke-width="1.5" d="M2386.6+101.482L2204.74+80.995" fill="#eb8d58" stroke-linecap="round" opacity="1" stroke-linejoin="round"/>
<path d="M1742.8+718.046L1776.91+713.741L1776.59+657.368L1810.05+654.342L1810.03+598.599L1842.02+595.882L1842.21+541.003L1873.66+539.213L1873.31+484.758L1904.24+483.982L1904.22+430.808L1716.54+422.427" opacity="1" fill="none"/>
<path stroke="#f7f2ef" stroke-width="1.5" d="M1904.3+430.562L2151.3+421.122L1960.42+414.436" fill="#eb8d58" stroke-linecap="round" opacity="1" stroke-linejoin="round"/>
<path d="M1776.73+713.615L1591.44+678.478" opacity="1" fill="#eb8d58"/>
<path stroke="#f7f2ef" stroke-width="1.5" d="M1809.85+653.955L1624.43+625.14" fill="#eb8d58" stroke-linecap="round" opacity="1" stroke-linejoin="round"/>
<path stroke="#f7f2ef" stroke-width="1.5" d="M1591.85+628.688L1776.35+657.247" fill="#eb8d58" stroke-linecap="round" opacity="1" stroke-linejoin="round"/>
<path stroke="#f7f2ef" stroke-width="1.5" d="M1809.7+598.323L1624.49+575.225" fill="#eb8d58" stroke-linecap="round" opacity="1" stroke-linejoin="round"/>
<path stroke="#f7f2ef" stroke-width="1.5" d="M1841.92+595.364L1655.57+572.862" fill="#eb8d58" stroke-linecap="round" opacity="1" stroke-linejoin="round"/>
<path stroke="#f7f2ef" stroke-width="1.5" d="M1842.39+540.819L1655.78+523.766" fill="#eb8d58" stroke-linecap="round" opacity="1" stroke-linejoin="round"/>
<path stroke="#f7f2ef" stroke-width="1.5" d="M1873.45+538.961L1685.75+520.668" fill="#eb8d58" stroke-linecap="round" opacity="1" stroke-linejoin="round"/>
<path stroke="#f7f2ef" stroke-width="1.5" d="M1873.2+484.659L1686.42+472.049" fill="#eb8d58" stroke-linecap="round" opacity="1" stroke-linejoin="round"/>
<path stroke="#f7f2ef" stroke-width="1.5" d="M1716.54+469.781L1903.72+483.494" fill="#eb8d58" stroke-linecap="round" opacity="1" stroke-linejoin="round"/>
<path d="M1742.8+718.017L1559.52+682.886" opacity="1" fill="#eb8d58"/>
<path d="M1557.58+735.311L1628.92+735.296L2750.34+735.057" opacity="1" fill="#eb8d58"/>
<path d="M2716.5+678.562L2543.2+712.317" opacity="1" fill="#eb8d58"/>
<path stroke="#f7f2ef" stroke-width="1.5" d="M2683.61+624.249L2508.9+652.833" fill="#eb8d58" stroke-linecap="round" opacity="1" stroke-linejoin="round"/>
<path stroke="#f7f2ef" stroke-width="1.5" d="M2650.8+571.735L2475.3+594.216" fill="#eb8d58" stroke-linecap="round" opacity="1" stroke-linejoin="round"/>
<path stroke="#f7f2ef" stroke-width="1.5" d="M2619.26+521.337L2442.05+537.9" fill="#eb8d58" stroke-linecap="round" opacity="1" stroke-linejoin="round"/>
<path stroke="#f7f2ef" stroke-width="1.5" d="M2588.71+470.718L2410.33+483.048" fill="#eb8d58" stroke-linecap="round" opacity="1" stroke-linejoin="round"/>
<path stroke="#f7f2ef" stroke-width="1.5" d="M2556.38+422.282L2378.93+428.599" fill="#eb8d58" stroke-linecap="round" opacity="1" stroke-linejoin="round"/>
<path stroke="#f7f2ef" stroke-width="1.5" d="M2527.32+373.473L2347.69+375.469" fill="#eb8d58" stroke-linecap="round" opacity="1" stroke-linejoin="round"/>
<path stroke="#f7f2ef" stroke-width="1.5" d="M2068.76+303.374" fill="#eb8d58" stroke-linecap="round" opacity="0.5" stroke-linejoin="round"/>
<path d="M1559.5+682.447L1742.41+718.05L1775.52+713.353L1592.94+678.508L1559.5+682.447Z" opacity="1" fill="#f4f2f0"/>
<path stroke="#f7f2ef" stroke-width="1.5" d="M1592.71+628.536L1623.33+624.565L1809.81+653.935L1776.41+657.229" fill="#f4f2f0" stroke-linecap="round" opacity="1" stroke-linejoin="round"/>
<path stroke="#f7f2ef" stroke-width="1.5" d="M1655.51+572.363L1626.86+575.186L1810.01+598.371L1841.59+595.39" fill="#f4f2f0" stroke-linecap="round" opacity="1" stroke-linejoin="round"/>
<path stroke="#f7f2ef" stroke-width="1.5" d="M1686.14+520.478L1658.73+523.491L1842.72+540.991L1872.97+538.968" fill="#f4f2f0" stroke-linecap="round" opacity="1" stroke-linejoin="round"/>
<path stroke="#f7f2ef" stroke-width="1.5" d="M1690.37+472.199L1717.35+470.727L1903.57+483.535L1873.48+484.726" fill="#f4f2f0" stroke-linecap="round" opacity="1" stroke-linejoin="round"/>
<path stroke="#f7f2ef" stroke-width="1.5" d="M1717.84+422.309L1960.77+414.052L2131.77+420.826L1904.17+430.293L1717.84+422.309Z" fill="#f4f2f0" stroke-linecap="round" opacity="1" stroke-linejoin="round"/>
<path stroke="#f7f2ef" stroke-width="1.5" d="M2544.88+712.43L2716.85+678.458L2749.07+682.957L2576.8+718.743L2544.88+712.43Z" fill="#f4f2f0" stroke-linecap="round" opacity="1" stroke-linejoin="round"/>
<path d="M2543.22+657.32L2510.17+652.754L2683.55+624.201L2716.67+627.82" opacity="1" fill="#f4f2f0"/>
<path stroke="#f7f2ef" stroke-width="1.5" d="M2478.72+594.505L2651.09+571.909L2682.89+574.881L2508.53+597.903" fill="#f4f2f0" stroke-linecap="round" opacity="1" stroke-linejoin="round"/>
<path stroke="#f7f2ef" stroke-width="1.5" d="M2448.36+537.77L2619.3+521.582L2649.66+522.973L2474.81+540.964" fill="#f4f2f0" stroke-linecap="round" opacity="1" stroke-linejoin="round"/>
<path stroke="#f7f2ef" stroke-width="1.5" d="M2419.41+483.103L2589+471.113L2618.15+471.216L2441.59+484.949" fill="#f4f2f0" stroke-linecap="round" opacity="1" stroke-linejoin="round"/>
<path stroke="#f7f2ef" stroke-width="1.5" d="M2392.05+428.588L2410.03+429.978L2587.45+422.929L2556.51+422.529" fill="#f4f2f0" stroke-linecap="round" opacity="1" stroke-linejoin="round"/>
<path d="M1558.73+733.485L1558.78+737.939L2749.41+736.251L2749.36+732.926L1558.73+733.485Z" opacity="1" fill="#05003b"/>
<path d="M1559.67+782.601L1593.36+786.391L1763.38+752.685L1730.89+747.9" opacity="1" fill="#f7f2ef"/>
<path stroke="#f7f2ef" stroke-width="1.5" d="M1597.38+836.857L1626.53+840.598L1800.89+812.281L1766.78+808.297" fill="#f7f2ef" stroke-linecap="round" opacity="1" stroke-linejoin="round"/>
<path stroke="#f7f2ef" stroke-width="1.5" d="M1659.61+893.47L1630.78+889.929L1800.9+866.954L1834.34+870.984" fill="#f7f2ef" stroke-linecap="round" opacity="1" stroke-linejoin="round"/>
<path stroke="#f7f2ef" stroke-width="1.5" d="M1663.9+942.193L1691.73+943.639L1861.45+927.24L1835.15+924.557" fill="#f7f2ef" stroke-linecap="round" opacity="1" stroke-linejoin="round"/>
<path stroke="#f7f2ef" stroke-width="1.5" d="M1695.81+993.622L1722.58+994.578L1899.56+981.58L1867.88+980.379" fill="#f7f2ef" stroke-linecap="round" opacity="1" stroke-linejoin="round"/>
<path stroke="#f7f2ef" stroke-width="1.5" d="M1754.37+1043.09L1744.32+1041.53L1900.45+1034.96L1920.88+1036.2" fill="#f7f2ef" stroke-linecap="round" opacity="1" stroke-linejoin="round"/>
<path stroke="#f7f2ef" stroke-width="1.5" d="M2173.95+1043.22L2406.1+1033.09L2594.17+1040.69L2349.57+1049.24" fill="#f7f2ef" stroke-linecap="round" opacity="1" stroke-linejoin="round"/>
<path stroke="#f7f2ef" stroke-width="1.5" d="M2406.59+980.443L2593.1+994.215L2623.67+991.782L2436.08+979.207" fill="#f7f2ef" stroke-linecap="round" opacity="1" stroke-linejoin="round"/>
<path stroke="#f7f2ef" stroke-width="1.5" d="M2442.84+925.226L2467.27+923.161L2653.68+939.923L2623.94+942.919" fill="#f7f2ef" stroke-linecap="round" opacity="1" stroke-linejoin="round"/>
<path stroke="#f7f2ef" stroke-width="1.5" d="M2471.89+868.54L2499.63+866.032L2683.38+888.694L2654.61+890.882" fill="#f7f2ef" stroke-linecap="round" opacity="1" stroke-linejoin="round"/>
<path stroke="#f7f2ef" stroke-width="1.5" d="M2504.04+810.145L2533.23+807.294L2717.35+835.011L2686.89+838.678" fill="#f7f2ef" stroke-linecap="round" opacity="1" stroke-linejoin="round"/>
<path stroke="#f7f2ef" stroke-width="1.5" d="M2536.85+750.305L2567.15+746.353L2750.91+780.527L2718.73+784.671L2536.85+750.305Z" fill="#f7f2ef" stroke-linecap="round" opacity="1" stroke-linejoin="round"/>
<path stroke="#f7f2ef" stroke-width="1.5" d="M2378.89+428.47L2409.98+430.193" fill="#eb8d58" stroke-linecap="round" opacity="1" stroke-linejoin="round"/>
<path stroke="#f7f2ef" stroke-width="1.5" d="M2441.67+484.938L2410.27+482.908" fill="#eb8d58" stroke-linecap="round" opacity="1" stroke-linejoin="round"/>
<path stroke="#f7f2ef" stroke-width="1.5" d="M2442.24+537.847L2475.22+540.918" fill="#eb8d58" stroke-linecap="round" opacity="1" stroke-linejoin="round"/>
<path stroke="#f7f2ef" stroke-width="1.5" d="M2475.55+594.28L2508.98+598.361" fill="#eb8d58" stroke-linecap="round" opacity="1" stroke-linejoin="round"/>
<path stroke="#f7f2ef" stroke-width="1.5" d="M2508.93+652.89L2542.98+657.002" fill="#eb8d58" stroke-linecap="round" opacity="1" stroke-linejoin="round"/>
<path stroke="#f7f2ef" stroke-width="1.5" d="M2499.81+810.081L2533.41+806.511" fill="#eb8d58" stroke-linecap="round" opacity="1" stroke-linejoin="round"/>
<path stroke="#f7f2ef" stroke-width="1.5" d="M2467.91+868.695L2499.47+865.292" fill="#eb8d58" stroke-linecap="round" opacity="1" stroke-linejoin="round"/>
<path stroke="#f7f2ef" stroke-width="1.5" d="M2436.54+925.148L2467.05+923.239" fill="#eb8d58" stroke-linecap="round" opacity="1" stroke-linejoin="round"/>
<path stroke="#f7f2ef" stroke-width="1.5" d="M2406.71+980.53L2436.08+979.159" fill="#eb8d58" stroke-linecap="round" opacity="1" stroke-linejoin="round"/>
<path stroke="#f7f2ef" stroke-width="1.5" d="M1932.27+1088.43L1962.48+1089.54" fill="#eb8d58" stroke-linecap="round" opacity="1" stroke-linejoin="round"/>
<path stroke="#f7f2ef" stroke-width="1.5" d="M1931.08+1036.41L1900.28+1034.83" fill="#eb8d58" stroke-linecap="round" opacity="1" stroke-linejoin="round"/>
<path stroke="#f7f2ef" stroke-width="1.5" d="M1867.79+927.256L1835.04+924.335" fill="#eb8d58" stroke-linecap="round" opacity="1" stroke-linejoin="round"/>
<path d="M2178.26+82.7856L2204.96+81.0953" opacity="1" fill="#05003b"/>
<path stroke="#f7f2ef" stroke-width="1.5" d="M2287.9+223.619L2260.45+224.694" fill="#05003b" stroke-linecap="round" opacity="1" stroke-linejoin="round"/>
<path stroke="#f7f2ef" stroke-width="1.5" d="M2260.13+175.717L2232.11+176.735" fill="#05003b" stroke-linecap="round" opacity="1" stroke-linejoin="round"/>
<path stroke="#f7f2ef" stroke-width="1.5" d="M2231.69+127.726L2204.66+128.85" fill="#05003b" stroke-linecap="round" opacity="1" stroke-linejoin="round"/>
<path stroke="#f7f2ef" stroke-width="1.5" d="M2204.73+81.0141L2178.15+83.4331" fill="#05003b" stroke-linecap="round" opacity="1" stroke-linejoin="round"/>
<path stroke="#f7f2ef" stroke-width="1.5" d="M2318.12+324.959L2347.57+324.77" fill="#05003b" stroke-linecap="round" opacity="1" stroke-linejoin="round"/>
<path stroke="#f7f2ef" stroke-width="1.5" d="M1992.28+1139.83L1962.64+1140.48" fill="#05003b" stroke-linecap="round" opacity="1" stroke-linejoin="round"/>
<path stroke="#f7f2ef" stroke-width="1.5" d="M2021.94+1190.86L1992.18+1191.1" fill="#05003b" stroke-linecap="round" opacity="1" stroke-linejoin="round"/>
<path stroke="#f7f2ef" stroke-width="1.5" d="M2050.22+1240.05L2022.47+1241.25" fill="#05003b" stroke-linecap="round" opacity="1" stroke-linejoin="round"/>
<path stroke="#f7f2ef" stroke-width="1.5" d="M2078.7+1288L2050.36+1289.12" fill="#05003b" stroke-linecap="round" opacity="1" stroke-linejoin="round"/>
<path stroke="#f7f2ef" stroke-width="1.5" d="M2106.05+1335.79L2078.85+1337.06" fill="#05003b" stroke-linecap="round" opacity="1" stroke-linejoin="round"/>
<path stroke="#f7f2ef" stroke-width="1.5" d="M2132.72+1381.34L2106.1+1383.74" fill="#05003b" stroke-linecap="round" opacity="1" stroke-linejoin="round"/>
</g>
</g>
</svg>
